FILE "Gremlin Demo Disk (Europe) (Track 1).bin" BINARY
  TRACK 01 MODE1/2352
    INDEX 01 00:00:00
FILE "Gremlin Demo Disk (Europe) (Track 2).bin" BINARY
  TRACK 02 AUDIO
    INDEX 01 00:00:00
FILE "Gremlin Demo Disk (Europe) (Track 3).bin" BINARY
  TRACK 03 AUDIO
    INDEX 01 00:00:00
